<?xml version="1.0" encoding="UTF-8" standalone="no"?>
<svg
   xmlns:dc="http://purl.org/dc/elements/1.1/"
   xmlns:cc="http://creativecommons.org/ns#"
   xmlns:rdf="http://www.w3.org/1999/02/22-rdf-syntax-ns#"
   xmlns:svg="http://www.w3.org/2000/svg"
   xmlns="http://www.w3.org/2000/svg"
   xmlns:sodipodi="http://sodipodi.sourceforge.net/DTD/sodipodi-0.dtd"
   xmlns:inkscape="http://www.inkscape.org/namespaces/inkscape"
   width="723.212"
   height="687.833"
   viewBox="0 0 191.351 181.987"
   version="1.1"
   id="svg159"
   sodipodi:docname="Seal_of_Brebes_Regency (1).svg"
   inkscape:version="1.0.1 (3bc2e813f5, 2020-09-07)">
  <metadata
     id="metadata163">
    <rdf:RDF>
      <cc:Work
         rdf:about="">
        <dc:format>image/svg+xml</dc:format>
        <dc:type
           rdf:resource="http://purl.org/dc/dcmitype/StillImage" />
      </cc:Work>
    </rdf:RDF>
  </metadata>
  <sodipodi:namedview
     pagecolor="#ffffff"
     bordercolor="#666666"
     borderopacity="1"
     objecttolerance="10"
     gridtolerance="10"
     guidetolerance="10"
     inkscape:pageopacity="0"
     inkscape:pageshadow="2"
     inkscape:window-width="1366"
     inkscape:window-height="705"
     id="namedview161"
     showgrid="false"
     inkscape:zoom="0.327067"
     inkscape:cx="431.83755"
     inkscape:cy="405.27475"
     inkscape:window-x="-8"
     inkscape:window-y="-8"
     inkscape:window-maximized="1"
     inkscape:current-layer="svg159" />
  <path
     d="M119.783 179.275c9.693-4.007 15.585.474 19.564 2.04l12.175-8.846 12.175-8.846c-.26-4.269-2.7-11.258 4.106-19.239 8.303-9.735 5.848-17.76 4.271-23.96 4.919-4.088 11.622-9.137 10.628-21.894-.815-10.456 5.267-14.676 7.985-17.977l-4.65-14.312-4.65-14.312c-4.14-1.072-11.541-.911-17.027-9.849-6.693-10.905-15.084-11.05-21.467-11.465-2.368-5.942-5.098-13.877-17.537-16.874-10.197-2.456-12.33-9.545-14.63-13.151H95.676 80.628c-2.3 3.606-4.432 10.694-14.629 13.151-12.439 2.996-15.17 10.932-17.537 16.874-6.383.416-14.774.561-21.467 11.465-5.487 8.938-12.887 8.777-17.027 9.849L5.316 66.243.664 80.557c2.719 3.301 8.802 7.521 7.986 17.977-.995 12.757 5.708 17.805 10.628 21.894-1.577 6.199-4.032 14.224 4.271 23.96 6.805 7.98 4.365 14.969 4.106 19.239l12.175 8.846 12.175 8.846c3.979-1.566 9.872-6.047 19.564-2.04 11.825 4.888 18.698.073 24.107-3.342 5.409 3.415 12.282 8.23 24.107 3.342z"
     fill="#00a2e9"
     stroke="#0070a1"
     stroke-width="1.186"
     opacity=".999"
     id="path2" />
  <g
     stroke="#000"
     fill="#fff000"
     stroke-width=".598"
     id="g96">
    <path
       d="M95.676 34.438c0 1.66-1.356 3.011-2.811 3.191-1.468.181-3.162-.879-3.578-2.409-.436-1.605.68-3.316 2.758-3.573 2.086-.258 3.631 1.129 3.631 2.792z"
       id="path6" />
    <path
       d="M89.287 35.22c.416 1.531-.524 3.241-1.922 3.758s-3.318-.144-4.096-1.545c-.817-1.47-.148-3.38 1.789-4.091s3.792.272 4.229 1.878z"
       id="path8" />
    <path
       d="M83.268 37.432c.712 1.282.356 2.981-.673 3.854a2.94 2.94 0 0 1-.308.226c-1.279.816-3.248.622-4.368-.656s-.888-3.252.788-4.34c.131-.085.267-.162.409-.229 1.658-.791 3.409-.191 4.152 1.146z"
       id="path10" />
    <path
       d="M77.92 40.856c1.117 1.276.967 3.152-.15 4.205-1.125 1.06-3.113 1.189-4.446.096s-1.447-3.067-.033-4.389c1.422-1.33 3.509-1.19 4.629.088z"
       id="path12" />
    <path
       d="M73.324 45.157c1.329 1.089 1.5 2.979.527 4.211-.978 1.239-2.945 1.615-4.414.701s-1.869-2.849-.699-4.332c1.175-1.49 3.255-1.671 4.586-.58z"
       id="path14" />
    <path
       d="M69.436 50.069a3.17 3.17 0 0 1 .859.786c.757 1.007.819 2.321.191 3.339-.836 1.357-2.743 1.928-4.301 1.165a2.9 2.9 0 0 1-1.196-4.201c.706-1.153 2.047-1.747 3.34-1.514.396.071.771.217 1.107.425z"
       id="path16" />
    <path
       d="M66.186 55.359c1.558.763 2.172 2.569 1.483 4.004s-2.532 2.183-4.162 1.563-2.411-2.427-1.622-4.066 2.743-2.264 4.302-1.501z"
       id="path18" />
    <path
       d="M63.506 60.925c1.629.619 2.424 2.366 1.873 3.866s-2.321 2.403-4.007 1.921-2.633-2.219-2.006-3.914 2.511-2.492 4.141-1.873z"
       id="path20" />
    <path
       d="M61.371 66.712c1.684.482 2.64 2.162 2.222 3.713s-2.111 2.591-3.836 2.239-2.821-2.011-2.348-3.747 2.278-2.687 3.963-2.205z"
       id="path22" />
    <path
       d="M59.757 72.664c1.724.351 2.821 1.957 2.529 3.543s-1.901 2.745-3.649 2.518-2.975-1.802-2.649-3.564 2.045-2.849 3.77-2.497z"
       id="path24" />
    <path
       d="M58.636 78.725c1.748.227 2.967 1.752 2.794 3.358s-1.692 2.866-3.446 2.757-3.094-1.593-2.908-3.365 1.811-2.978 3.56-2.75z"
       id="path26" />
    <path
       d="M57.984 84.84a3.34 3.34 0 0 1 1.097.26c1.213.515 1.973 1.668 1.936 2.891-.048 1.603-1.457 2.965-3.216 2.983s-3.211-1.368-3.158-3.155c.04-1.34.94-2.476 2.217-2.853a3.25 3.25 0 0 1 1.123-.125z"
       id="path28" />
    <path
       d="M57.802 90.973c1.76-.018 3.197 1.315 3.283 2.91s-1.196 3.058-2.946 3.216-3.32-1.11-3.419-2.902 1.322-3.205 3.082-3.223z"
       id="path30" />
    <path
       d="M58.139 97.099c1.751-.158 3.299 1.053 3.532 2.625s-.902 3.137-2.63 3.446-3.414-.82-3.679-2.605 1.027-3.308 2.777-3.466z"
       id="path32" />
    <path
       d="M59.042 103.17c.574-.103 1.168-.052 1.716.137 1.041.359 1.814 1.173 2.064 2.155.389 1.527-.574 3.196-2.258 3.675s-3.495-.483-3.945-2.256c-.28-1.102.068-2.234.886-2.968.43-.386.963-.639 1.537-.742z"
       id="path34" />
    <path
       d="M60.563 109.137c1.687-.48 3.452.417 4.012 1.875.558 1.453-.183 3.211-1.787 3.882s-3.529-.075-4.199-1.806c-.668-1.726.289-3.472 1.974-3.951z"
       id="path36" />
    <path
       d="M62.788 114.894c1.608-.672 3.469.003 4.219 1.352.446.802.475 1.776.069 2.652a3.24 3.24 0 0 1-1.273 1.411c-.567.338-1.234.495-1.916.424a3.28 3.28 0 0 1-2.512-1.674c-.914-1.647-.193-3.495 1.412-4.166z"
       id="path38" />
    <path
       d="M65.804 120.31c1.486-.886 3.435-.488 4.385.707s.813 3.076-.489 4.19-3.399.974-4.607-.547-.773-3.464.712-4.349z"
       id="path40" />
    <path
       d="M69.699 125.206c1.305-1.117 3.289-1.04 4.429-.041 1.135.995 1.374 2.859.321 4.183s-3.142 1.559-4.634.258-1.42-3.286-.116-4.401z"
       id="path42" />
    <path
       d="M74.449 129.349c1.054-1.326 3.009-1.614 4.318-.872a2.94 2.94 0 0 1 .326.215c1.082.837 1.547 2.455.88 3.811s-2.368 2.041-4.058 1.362c-.15-.061-.295-.133-.435-.213-1.752-1.008-2.083-2.979-1.03-4.303z"
       id="path44" />
    <path
       d="M79.973 132.503c.739-1.502 2.584-2.174 4.039-1.692 1.463.485 2.466 2.106 2.04 3.723s-2.243 2.603-4.146 1.967c-1.91-.639-2.674-2.493-1.933-3.998z"
       id="path46" />
    <path
       d="M86.052 134.534c.425-1.612 2.115-2.609 3.674-2.375 1.565.235 2.849 1.685 2.713 3.349s-1.75 2.93-3.722 2.628c-1.978-.303-3.091-1.989-2.666-3.603z"
       id="path48" />
    <path
       d="M92.44 135.509c.136-1.664 1.638-2.91 3.235-2.904 1.598-.006 3.099 1.24 3.235 2.905s-1.256 3.146-3.235 3.14c-1.979.006-3.371-1.475-3.235-3.14z"
       id="path50" />
    <path
       d="M98.911 135.509c-.136-1.665 1.148-3.114 2.713-3.349 1.559-.234 3.249.763 3.674 2.375s-.688 3.3-2.666 3.603c-1.972.302-3.586-.966-3.722-2.628z"
       id="path52" />
    <path
       d="M105.298 134.534c-.426-1.617.577-3.238 2.04-3.723 1.455-.482 3.3.19 4.039 1.692s-.023 3.359-1.933 3.998c-1.903.636-3.72-.353-4.146-1.967z"
       id="path54" />
    <path
       d="M111.378 132.503c-.668-1.356-.202-2.974.88-3.811.104-.079.212-.15.326-.215 1.309-.742 3.263-.454 4.318.872s.723 3.295-1.03 4.303c-.14.08-.285.152-.435.213-1.691.679-3.389-.001-4.059-1.362z"
       id="path56" />
    <path
       d="M116.901 129.349c-1.053-1.324-.814-3.188.321-4.183 1.14-.999 3.124-1.076 4.429.041s1.372 3.105-.116 4.401-3.579 1.068-4.634-.258z"
       id="path58" />
    <path
       d="M121.652 125.207c-1.303-1.114-1.436-2.998-.489-4.19s2.898-1.593 4.385-.707 1.918 2.832.712 4.349-3.304 1.663-4.607.547z"
       id="path60" />
    <path
       d="M125.547 120.31a3.24 3.24 0 0 1-1.273-1.412c-.406-.876-.377-1.85.069-2.652.75-1.348 2.611-2.024 4.219-1.352s2.326 2.519 1.412 4.166a3.28 3.28 0 0 1-2.512 1.674c-.682.071-1.348-.086-1.916-.424z"
       id="path62" />
    <path
       d="M128.562 114.894c-1.605-.671-2.345-2.43-1.787-3.882.56-1.458 2.325-2.355 4.012-1.875s2.642 2.225 1.974 3.951c-.67 1.732-2.592 2.478-4.199 1.806z"
       id="path64" />
    <path
       d="M130.787 109.137c-1.685-.479-2.648-2.148-2.258-3.675.25-.982 1.024-1.796 2.065-2.155.547-.189 1.141-.24 1.715-.137s1.107.356 1.537.742c.818.734 1.166 1.866.886 2.969-.449 1.773-2.259 2.735-3.945 2.256z"
       id="path66" />
    <path
       d="M132.309 103.171c-1.728-.309-2.862-1.877-2.63-3.446s1.781-2.783 3.532-2.625 3.041 1.683 2.777 3.466-1.95 2.915-3.679 2.605z"
       id="path68" />
    <path
       d="M133.211 97.099c-1.75-.158-3.033-1.623-2.946-3.216s1.523-2.928 3.283-2.91 3.18 1.433 3.082 3.223-1.668 3.06-3.419 2.902z"
       id="path70" />
    <path
       d="M133.549 90.974c-1.759-.018-3.168-1.38-3.216-2.983-.036-1.223.723-2.376 1.937-2.891a3.34 3.34 0 0 1 1.096-.26 3.25 3.25 0 0 1 1.123.125c1.277.377 2.177 1.514 2.217 2.854.054 1.786-1.398 3.173-3.158 3.155z"
       id="path72" />
    <path
       d="M133.366 84.84c-1.754.11-3.272-1.149-3.446-2.757s1.046-3.131 2.794-3.358 3.374.977 3.56 2.75-1.154 3.255-2.908 3.365z"
       id="path74" />
    <path
       d="M132.715 78.725c-1.748.227-3.356-.93-3.649-2.518s.805-3.192 2.529-3.543 3.444.734 3.77 2.497-.902 3.336-2.649 3.564z"
       id="path76" />
    <path
       d="M131.594 72.664c-1.725.352-3.417-.686-3.836-2.239s.538-3.231 2.222-3.713 3.49.467 3.963 2.205-.624 3.395-2.348 3.747z"
       id="path78" />
    <path
       d="M129.979 66.713c-1.686.483-3.456-.418-4.007-1.921s.244-3.247 1.873-3.866 3.513.175 4.141 1.873-.32 3.432-2.006 3.914z"
       id="path80" />
    <path
       d="M127.845 60.926c-1.631.62-3.472-.126-4.162-1.563s-.076-3.24 1.483-4.004 3.511-.14 4.302 1.501.007 3.446-1.622 4.066z"
       id="path82" />
    <path
       d="M125.165 55.359c-1.558.763-3.466.192-4.301-1.165-.628-1.019-.565-2.333.192-3.34a3.17 3.17 0 0 1 .859-.785c.336-.209.71-.354 1.107-.425 1.293-.233 2.635.361 3.341 1.514a2.9 2.9 0 0 1-1.196 4.201z"
       id="path84" />
    <path
       d="M121.915 50.069c-1.47.914-3.436.537-4.414-.701-.972-1.231-.802-3.122.527-4.211s3.411-.909 4.586.58c1.169 1.483.768 3.42-.699 4.332z"
       id="path86" />
    <path
       d="M118.027 45.157c-1.333 1.092-3.321.964-4.446-.096-1.117-1.053-1.267-2.929-.15-4.205s3.206-1.418 4.629-.088c1.415 1.323 1.298 3.299-.033 4.389z"
       id="path88" />
    <path
       d="M113.431 40.856c-1.119 1.278-3.089 1.473-4.368.656a2.94 2.94 0 0 1-.308-.226c-1.029-.873-1.385-2.572-.673-3.854.743-1.337 2.494-1.937 4.152-1.146.141.068.278.144.409.229 1.676 1.089 1.905 3.064.788 4.34z"
       id="path90" />
    <path
       d="M108.083 37.433c-.779 1.401-2.699 2.062-4.096 1.545s-2.338-2.227-1.922-3.758c.437-1.606 2.288-2.591 4.229-1.878s2.606 2.621 1.789 4.091z"
       id="path92" />
    <path
       d="M102.064 35.22c-.416 1.53-2.11 2.59-3.578 2.409-1.455-.179-2.811-1.53-2.811-3.191s1.545-3.049 3.631-2.792c2.078.257 3.194 1.968 2.758 3.573z"
       id="path94" />
  </g>
  <path
     d="M84.297 107.901c-1.001 1.141-1.82 2.372-3.892 3.181-1.94.757-4.265 1.187-5.202 2.507-2.254 3.175-.307 4.229.636 4.94 4.065.506 4.321-2.215 5.801-3.93 2.308-2.673 3.814-2.66 5.302-2.02 1.992 1.894.241 4.02-1.588 4.817-6.48 2.825-4.774 9.243 0 7.992 2.858-.749 2.587-5.176 3.864-7.781.863-2.977 3.357-2.497 4.552-1.799 2.555 2.356-.645 5.338-1.376 8.046-.998 3.696.751 4.587 3.282 5.399 2.531-.812 4.28-1.703 3.281-5.399-.732-2.708-3.931-5.69-1.376-8.046 1.195-.698 3.688-1.178 4.552 1.799 1.277 2.605 1.006 7.032 3.864 7.781 4.774 1.251 6.48-5.167 0-7.992-1.829-.797-3.58-2.923-1.588-4.817 1.488-.64 2.994-.653 5.302 2.02 1.48 1.714 1.736 4.435 5.801 3.93.943-.711 2.891-1.765.637-4.94-.938-1.321-3.262-1.75-5.203-2.507-2.073-.809-2.891-2.04-3.892-3.181-3.101 2.872-7.337 4.716-11.378 4.679-4.041.037-8.278-1.807-11.379-4.679z"
     id="path98" />
  <g
     fill="#8b0000"
     id="g104">
    <path
       d="M94.982 106.48c-2.52-.717-4.792-1.709-6.554-2.864-.138-.09-.122-.042.109.336l.833 1.292.539.873c-.038.038-2.645-.701-3.393-.963-2.974-1.041-5.383-2.504-8.774-5.332-1.254-1.046-3.083-2.841-3.768-3.701-1.919-2.405-3.142-5.363-3.471-8.39-.105-.966-.089-3.047.03-4.013a19.33 19.33 0 0 1 2.029-6.537c1.144-2.204 2.574-3.997 4.518-5.666 1.606-1.379 2.536-2.55 3.274-4.126.832-1.776 1.215-3.97 1.064-6.097-.119-1.67-.289-2.453-.915-4.213l-.371-1.042.349.225.967.623c2.005 1.292 3.621 3.094 4.944 5.516.188.344.36.627.383.628s.111-.562.197-1.251c.195-1.569.263-3.978.141-5.075-.331-2.998-1.526-4.698-3.711-5.28-.721-.192-1.846-.236-3.403-.134-.735.048-1.35.076-1.365.06-.053-.053 2.13-1.829 2.71-2.205 2.214-1.434 4.276-1.718 6.062-.835 1.478.73 2.479 2.037 3.061 3.996.454 1.528.714 3.344 1.004 7.017.381 4.824.757 6.881 1.347 7.377.249.209.393.217.736.042.461-.235.982-.912 1.705-2.216l.401-.723.47.843c.59 1.058 1.088 1.718 1.513 2.005.385.26.57.278.822.079.623-.49.99-2.449 1.382-7.374.291-3.653.511-5.235.951-6.831.472-1.711 1.168-2.849 2.258-3.687a6.43 6.43 0 0 1 1.835-.9c1.559-.374 3.435.085 5.196 1.27.562.378 2.644 2.092 2.597 2.138-.017.017-.632-.009-1.368-.058-2.96-.195-4.278.12-5.466 1.305-.793.791-1.266 1.824-1.541 3.365-.156.874-.212 3.067-.11 4.291.086 1.03.265 2.547.32 2.706.019.055.229-.241.487-.687 1.139-1.967 2.35-3.476 3.59-4.474.473-.38.757-.575 2.144-1.467l.459-.295-.243.666c-.747 2.052-.951 2.953-1.047 4.625-.244 4.242 1.127 7.458 4.353 10.206 1.956 1.666 3.491 3.63 4.63 5.922 3.183 6.409 2.573 13.62-1.583 18.713-1.663 2.038-5.115 4.998-7.86 6.741-1.418.9-3.052 1.691-4.626 2.241-.697.243-3.374 1.01-3.408.976-.009-.009.323-.541.738-1.182l.83-1.3c.074-.133.073-.134-.124-.002-1.707 1.135-4.125 2.178-6.721 2.901l-.481.134-.678-.193z"
       id="path100" />
    <path
       d="M95.163 63.085c-1.19-1.427-1.995-2.637-2.664-4.002-1.404-2.866-1.663-5.477-.849-8.545.568-2.138 2.029-4.992 3.841-7.5l.183-.254.829 1.25c4.435 6.687 4.784 11.63 1.201 16.997-.533.798-1.73 2.345-1.966 2.541-.083.069-.181-.014-.575-.487z"
       id="path102" />
  </g>
  <path
     d="M96.83 105.622c2.58-.788 5.097-2.023 6.589-3.233.481-.39.659-.688 1.124-1.874.64-1.634.888-2.784.947-4.401.103-2.8-.497-4.822-2.63-8.862-1.49-2.823-2.051-4.105-2.391-5.458-.3-1.197-.38-2.307-.242-3.385.067-.529.531-2.466.612-2.557.025-.028.287.274.583.672l.562.698c.014-.014-.021-.285-.077-.603-.601-3.417.109-7.896 1.895-11.955.194-.44.252-.644.206-.728-.088-.165-.322-1.821-.457-3.239-.139-1.458-.106-3.891.064-4.798.459-2.447 1.4-3.915 3.023-4.713.93-.458 1.511-.586 2.89-.639l1.167-.044-.618-.465c-.75-.564-1.934-1.166-2.677-1.361-.722-.19-1.81-.205-2.437-.035-1.316.358-2.324 1.269-3.016 2.723-.673 1.417-1 3.249-1.381 7.752-.329 3.881-.514 5.303-.855 6.579-.339 1.266-.846 1.869-1.566 1.864-.273-.002-.734-.208-1.082-.483-.289-.229-1.046-1.196-1.218-1.556-.059-.124-.13-.225-.159-.225s-.225.266-.437.592c-1.032 1.583-2.111 2.069-2.907 1.309-.754-.72-1.114-2.532-1.555-7.805-.344-4.127-.62-5.907-1.146-7.409-.659-1.881-1.971-3.114-3.626-3.41-1.446-.258-3.198.279-4.771 1.464l-.618.465 1.167.044c1.384.053 1.959.181 2.905.646 1.411.695 2.352 1.979 2.836 3.87.452 1.768.448 4.63-.01 7.777-.075.518-.163 1.01-.194 1.094-.043.115.032.358.304.988 1.71 3.966 2.374 8.324 1.783 11.708-.055.315-.088.584-.074.598s.273-.303.575-.704.564-.705.581-.675c.09.152.533 2.057.603 2.595.097.736.049 1.958-.108 2.78-.245 1.282-.683 2.379-1.947 4.874l-2.142 4.378c-1.091 2.619-1.36 5.167-.819 7.763.186.891.699 2.392 1.083 3.169.357.722.553.914 1.764 1.725.759.508 2.813 1.526 3.879 1.923 1.346.501 2.685.886 2.954.85.133-.018.612-.145 1.064-.283zm-8.504-.696l-.525-.871c-.951-1.578-1.729-3.285-2.123-4.662-.468-1.634-.588-2.573-.536-4.221.08-2.546.678-4.347 2.758-8.315 1.508-2.876 1.911-3.791 2.255-5.119.215-.829.323-1.587.323-2.266 0-.798-.204-2.098-.329-2.091-.027.002-.511.653-1.075 1.448-1.537 2.166-2.449 3.184-3.274 3.659-.174.1-.093-.013.331-.463 2.873-3.047 3.577-8.058 1.944-13.837-1.002-3.545-2.91-7.038-4.976-9.109-.595-.597-1.532-1.378-1.582-1.321-.009.011.071.366.178.79.815 3.22.505 6.697-.835 9.368-.806 1.606-1.743 2.766-3.33 4.122a17.87 17.87 0 0 0-5.864 9.425c-.383 1.496-.487 2.273-.528 3.948-.044 1.797.071 2.906.459 4.428.851 3.332 2.535 5.915 5.63 8.636 3.853 3.387 6.745 5.168 10.126 6.235.84.265 1.027.307.973.215zm15.985-.329c1.878-.62 3.525-1.431 5.287-2.602 2.615-1.739 5.855-4.581 7.283-6.389 1.636-2.071 2.647-4.336 3.127-7.003.142-.79.16-1.106.161-2.746.001-1.97-.057-2.537-.412-4.056-.837-3.574-2.864-7.047-5.419-9.283-2.23-1.952-3.122-3.027-3.944-4.751-1.301-2.731-1.569-6.128-.736-9.336.093-.358.161-.66.151-.67-.032-.032-.878.629-1.298 1.013-.499.456-1.366 1.486-1.938 2.303-2.788 3.984-4.454 9.59-4.147 13.96.205 2.916 1.125 5.243 2.764 6.99.564.601.511.618-.213.068-.668-.508-1.287-1.25-2.759-3.31l-1.01-1.405c-.147-.163-.331 1.034-.327 2.126.007 2.016.472 3.379 2.439 7.149 1.543 2.958 2.065 4.165 2.473 5.725a12.12 12.12 0 0 1 .405 3.251c.002 1.61-.276 3.14-.86 4.728-.437 1.188-1.479 3.226-2.286 4.471-.105.163-.105.163.131.112.13-.028.638-.184 1.129-.346zm-7.76-43.115c1.401-1.899 2.309-3.806 2.679-5.626.6-2.955-.08-6.03-2.115-9.557-.495-.858-1.402-2.285-1.452-2.285-.037 0-1.075 1.623-1.428 2.231-.532.917-1.33 2.631-1.621 3.477-1.489 4.343-.683 8.179 2.591 12.335l.45.571.193-.228a26.39 26.39 0 0 0 .702-.918z"
     fill="red"
     stroke="#000"
     stroke-width=".069"
     id="path106" />
  <path
     d="M82.662 67.643c-.897 4.625-4.999 7.738-6.421 12.189-2.093 4.951-.482 11.046 3.677 14.322-.574-4.268-2.59-10.581 2.01-12.942 3.983-1.692 1.02-5.699 3.074-8.937.806-1.963-2.37-12.122-2.339-4.632zm25.195-2.329c-1.997 5.244 2.205 10.077 1.954 14.772-1.92 3.465 5.362 6.945.15 9.947-1.562 2.236.547 7.113-1.865 10.037 4.483-1.162 6.886-6.216 9.539-9.777 2.836-4.191.771-10.394-3.421-12.847-2.946-3.288-5.554-7.127-6.099-11.601l-.258-.533zm-5.943 5.867c-2.037 2.563-4.808 3.197-3.842 7.192l3.365 16.184c1.153 4.141-4.353 10.315-8.013 6.637 2.088-3.537 3.34-7.545 2.813-11.675-.013-4.281-.953-8.378-2.097-12.336.311-4.404 2.42-7.854 6.646-8.725 1.235-2.884.461-9.966 1.232-10.404.311 4.075-3.453 10.047-.104 13.128zm-6.178-24.922c1.777 3.947-.888 10.218.913 12.883 3.58-3.134 1.938-10.033-.913-12.883z"
     fill="#ff4c4c"
     id="path108" />
  <g
     fill="#fff000"
     id="g118">
    <path
       d="M37.238 125.759c-.067-.078-1.187-3.664-1.744-5.581l-.103-.355.367-.253c.539-.371 1.605-1.505 2.049-2.178.498-.755.77-1.304 1.019-2.054l.2-.603.768-.414c1.401-.756 2.257-1.559 2.826-2.653.424-.814.567-1.404.609-2.512.042-1.09-.039-1.829-.331-3.014-.315-1.279-1.122-3.519-1.269-3.521-.116-.002-2.442 2.396-3.013 3.107-1.371 1.705-2.071 3.109-2.268 4.548-.159 1.158.154 2.364.898 3.459l.293.432-.045.585c-.06.778-.388 1.757-.802 2.389-.445.68-.898 1.058-1.466 1.221-.243.07-.2.176-.699-1.73-.864-3.305-1.636-6.922-2.15-10.068l-.347-2.123c-.034-.21-.018-.227.501-.506 1.244-.67 2.467-1.775 3.225-2.914.389-.584.396-.59.734-.635 1.022-.136 2.403-.703 3.203-1.317 2.004-1.536 2.731-4.425 2.203-8.755l-.126-.923c-.027-.028-2.126 1.186-2.767 1.6-2.591 1.672-4.154 3.453-4.563 5.197-.177.755-.106 1.957.163 2.742l.212.621-.138.414c-.327.982-.963 1.908-1.691 2.459-.502.38-1.042.611-1.122.481-.1-.161-.428-3.617-.562-5.907-.146-2.514-.065-8.21.134-9.379.044-.261.06-.274.459-.387 1.287-.364 2.596-1.089 3.545-1.963l.303-.278 1.181-.005c.965-.004 1.291-.032 1.782-.153 2.959-.731 4.607-3.275 5.358-8.267l.125-.834-.558.129c-1.99.461-3.575.994-4.974 1.674-2.017.98-3.148 2.089-3.664 3.592-.163.476-.195.699-.229 1.63l-.04 1.079-.27.391c-.348.505-1.077 1.176-1.636 1.507-.442.262-1.14.512-1.216.436-.1-.1.418-3.617.836-5.665.439-2.152 1.295-5.397 1.452-5.503.042-.028.2-.052.352-.053.678-.006 2.044-.417 3.036-.914.662-.331 1.012-.561 1.667-1.096l.494-.403.736.074c1.756.177 3.4-.278 4.582-1.266 1.165-.975 2.092-2.684 2.701-4.98.202-.762.585-2.721.54-2.766-.034-.034-1.136.198-2.131.449-4.179 1.055-6.447 2.562-7.216 4.796-.162.471-.194.692-.22 1.518l-.03.966-.301.423c-.604.85-1.702 1.655-2.575 1.888-.3.08-1.158.117-1.222.052-.081-.081 1.043-3.014 1.884-4.916 1.176-2.66 3.407-6.778 3.656-6.748.069.008.389.051.712.095 1.51.207 3.453-.112 4.871-.8.371-.18.502-.215.606-.159.276.148 1.33.473 1.857.573.713.135 1.724.132 2.348-.007.562-.125 1.462-.522 1.958-.864.893-.614 2.047-1.938 2.852-3.269.362-.599 1.327-2.494 1.409-2.768.042-.14.015-.146-.838-.189-5.834-.298-8.93.837-10.016 3.671-.111.29-.238.706-.283.923-.071.347-.125.434-.439.711-.197.174-.668.469-1.048.656-1.143.563-2.264.691-3.042.347l-.312-.138.254-.399c1.255-1.973 3.354-4.787 5.265-7.059.754-.896 2.323-2.663 2.416-2.72.029-.018.283.026.563.098 1.564.402 3.502.291 5.114-.294l.457-.166.302.158c.591.31 1.691.707 2.259.814 1.485.28 2.869-.006 4.178-.866.64-.42 1.688-1.405 2.304-2.165a31.2 31.2 0 0 0 1.939-2.876c.259-.461.323-.414-.785-.576-2.027-.297-4.12-.387-5.383-.233-1.872.228-3.37.933-4.209 1.981-.365.455-.817 1.317-.974 1.856-.129.442-.376.654-1.235 1.057-.747.351-1.325.482-2.109.479-.664-.003-1.302-.156-1.359-.326-.033-.1 2.348-2.479 4.023-4.02 2.525-2.321 5.087-4.487 5.305-4.483.079.001.33.048.557.104 1.108.273 2.926.18 4.168-.212l.58-.183.801.382c1.053.502 1.654.668 2.595.713.626.031.867.011 1.37-.109 1.897-.454 3.686-2.025 5.511-4.84l.559-.871c.032-.055-.205-.124-.764-.225-5.009-.902-7.862-.46-9.455 1.466-.328.396-.785 1.235-.918 1.684-.068.23-.155.337-.406.498-.893.573-1.946.871-2.872.814-.314-.02-.606-.057-.649-.084-.092-.057.379-.435 2.792-2.243 2.091-1.566 4.03-2.94 6.128-4.34l1.573-1.05.428.208c.56.271 1.228.38 2.012.327.768-.052 1.302-.186 1.949-.491 1.575-.743 2.944-2.206 4.232-4.523.437-.787 1.098-2.222 1.056-2.295-.045-.078-3.034-.062-3.803.02-3.581.382-5.581 1.718-6.295 4.207a5.27 5.27 0 0 0-.167 1.058l-.018.541-1.305.806c-2.354 1.454-5.049 3.252-7.136 4.761l-1.328.96c-.18.13-.328.201-.328.156s.065-.505.144-1.024c.179-1.174.465-2.082.824-2.621.389-.583.66-.773 1.101-.773.56 0 1.295-.194 1.979-.522.495-.238.76-.425 1.224-.864 1.137-1.076 1.905-2.582 2.41-4.722.17-.719.407-2.23.483-3.08l.035-.388-.46.134c-4.413 1.284-6.798 2.921-7.575 5.198-.248.727-.306 1.912-.136 2.813l.114.605-.344 1.063c-.54 1.669-1.11 4.204-1.11 4.94 0 .125-.056.198-.201.262-.11.049-.249.19-.307.314s-.368.431-.714.704a134.89 134.89 0 0 0-4.334 3.649l-.897.803-.058-.261c-.093-.423-.007-2.208.128-2.642.157-.505.397-.968.596-1.146.089-.08.317-.182.507-.227.603-.142 1.571-.668 2.067-1.123 1.482-1.358 2.178-3.431 2.178-6.489 0-1.128-.117-2.811-.201-2.902-.057-.062-1.352.622-2.283 1.206-2.454 1.54-3.822 3.03-4.359 4.747-.133.428-.161.668-.161 1.38.001.925.062 1.222.457 2.222.207.523.209.541.134 1.139-.164 1.319-.22 2.259-.22 3.726v1.532l-.704.665c-1.015.958-3.137 3.19-4.347 4.571-.573.655-1.062 1.19-1.086 1.19s-.125-.349-.226-.776c-.423-1.795-.432-2.734-.037-3.652.133-.309.187-.357.705-.613 1.627-.807 2.633-2.225 2.978-4.197.149-.85.132-2.591-.037-3.735-.126-.859-.407-2.134-.664-3.021l-.106-.364-.598.462c-2.179 1.683-3.685 3.31-4.429 4.786-.957 1.896-.88 3.634.243 5.491.369.611.378.638.378 1.145 0 1.226.383 4.179.682 5.258l.128.461-.662.844c-1.682 2.146-3.473 4.749-4.807 6.986l-.757 1.261c-.009.01-.127-.409-.263-.932-.478-1.84-.508-2.613-.14-3.594.092-.245.174-.329.463-.475 1.058-.535 1.921-1.388 2.413-2.384.459-.93.603-1.582.645-2.936.038-1.231-.03-1.987-.299-3.269-.164-.783-.67-2.606-.776-2.796-.131-.234-2.948 2.419-3.823 3.601-.904 1.22-1.428 2.397-1.573 3.534-.159 1.245.222 2.585 1.08 3.794.245.345.302.483.302.725 0 1.288.696 5.16 1.069 5.946.106.223.105.225-.605 1.635-1.108 2.2-2.343 5.077-3.026 7.053-.128.37-.26.664-.293.653-.08-.026-.691-1.137-.949-1.724-.408-.929-.564-1.894-.413-2.546.043-.184.185-.371.522-.687 2.308-2.159 2.419-5.348.333-9.55-.413-.831-1.242-2.264-1.533-2.65l-.125-.165-.275.372a35.36 35.36 0 0 0-1.639 2.5c-1.187 2.026-1.838 4.136-1.737 5.636.106 1.576.69 2.74 1.999 3.978.627.594.661.641.86 1.205.543 1.538 1.603 3.905 2.258 5.039l.184.319-.349 1.199c-.482 1.66-.926 3.479-1.285 5.271-.296 1.477-.657 3.652-.657 3.956 0 .083-.029.15-.065.15-.089 0-1.397-1.447-1.839-2.036-.659-.877-1.064-1.863-1.064-2.592 0-.274.056-.403.388-.899.685-1.023.975-1.87 1.038-3.03.105-1.922-.736-4.081-2.484-6.38-.774-1.018-2.612-3.017-2.695-2.933s-.955 2.28-1.203 3.033c-.661 2.005-.873 3.247-.822 4.83.048 1.489.279 2.269.996 3.364.55.839 1.447 1.588 2.756 2.3.126.068.404.434.761 1.001 1.081 1.714 2.436 3.502 3.476 4.585l.497.518-.113 1.311c-.214 2.493-.264 3.738-.265 6.675l-.001 2.949-.56-.391c-1.86-1.298-2.721-2.21-3.038-3.216-.143-.454-.127-.604.123-1.194.338-.798.42-1.235.419-2.235 0-.688-.034-1.058-.129-1.415-.52-1.958-2-3.914-4.361-5.764-.917-.719-2.531-1.802-2.591-1.739-.026.027-.127.485-.224 1.016-.541 2.951-.585 5.165-.14 7.02.218.907.777 2.062 1.302 2.69.724.865 1.893 1.584 3.174 1.952l.617.177 1.211 1.192c1.315 1.294 2.372 2.204 3.558 3.063l.759.55.083 1.133c.166 2.272.467 4.868.84 7.246.11.699.189 1.283.176 1.297s-.342-.186-.732-.445c-1.259-.838-2.169-1.846-2.58-2.858l-.17-.417.146-.568c.627-2.444-.302-4.646-2.681-6.351-1.159-.831-2.973-1.799-4.723-2.521l-.67-.276-.048.322c-.062.413.016 3.228.113 4.083.26 2.291.875 3.891 1.895 4.934.961.982 2.176 1.478 4.072 1.662l.483.047.971.748a69.69 69.69 0 0 1 3.779 3.181l.54.504.338 1.647c.424 2.064.853 3.881 1.429 6.048l.485 1.858c.035.165.028.163-.436-.092-.897-.493-1.684-1.207-2.087-1.895-.176-.3-.183-.352-.189-1.42-.006-1.008-.023-1.158-.191-1.661a4.85 4.85 0 0 0-1.223-1.974c-.849-.865-2.011-1.548-3.727-2.187-.874-.326-2.878-.914-3.478-1.021l-.269-.048.048.441c.082.761.385 2.481.569 3.236.687 2.808 1.775 4.503 3.371 5.252.768.36 1.14.427 2.51.451l1.268.022 1.355.77a66.79 66.79 0 0 1 2.162 1.281l.808.511.18.601.624 1.992.444 1.431.177.652 2.027.888.694-1.93z"
       fill="#000"
       id="path110" />
    <path
       d="M73.528 32.471c1.657-.337 3.322-1.777 4.646-4.017.324-.549 1.097-2.041 1.097-2.119 0-.02-.573-.036-1.273-.036-3.861 0-6.226.987-7.189 3.002-.267.557-.51 1.448-.508 1.857s.218.829.528 1.034c.568.375 1.668.488 2.7.279zm-13.553 2.26a3.78 3.78 0 0 1 .905-1.119c.195-.155.335-.198.774-.236a7.42 7.42 0 0 0 1.051-.185c1.924-.514 3.29-2.271 4.039-5.194.222-.867.559-2.854.495-2.919-.016-.016-.413.099-.883.256-3.709 1.238-5.706 2.844-6.134 4.932-.119.579-.103 1.583.036 2.225l.117.543-.318.986-.318 1.014c0 .099.09-.017.235-.304zm8.9 6.476c1.3-.332 2.569-1.281 3.87-2.891.549-.679 1.357-1.893 1.297-1.948-.087-.08-1.922-.329-3.068-.416-.838-.064-1.286-.064-1.979-.001-2.639.241-3.964 1.178-4.737 3.346-.106.298-.178.373-.643.671a6.41 6.41 0 0 1-1.038.523c-.283.103-.477.2-.432.215.123.041 1.085-.185 1.582-.371l.434-.162.636.34c1.485.793 2.807 1.018 4.078.693zm-17.348.343c.305-.913.71-1.367 1.381-1.545 1.478-.392 2.649-1.484 3.248-3.03.121-.312.301-.939.4-1.395.17-.782.18-.936.181-2.772l-.046-1.991c-.058-.058-1.1.523-1.99 1.108-1.886 1.24-3.089 2.548-3.606 3.919-.194.516-.213.638-.218 1.427-.005.96.091 1.432.455 2.221l.212.461-.112.926c-.162 1.348-.153 1.413.095.671zm-7.829 6.431c.242-.64.38-.785 1.074-1.13 2.641-1.312 3.418-4.394 2.296-9.114-.097-.408-.202-.742-.232-.742-.118 0-1.244.96-2.061 1.757-1.395 1.36-2.285 2.691-2.61 3.902-.147.548-.162 1.67-.029 2.208.119.486.491 1.299.835 1.829l.269.414.073 1.103.08 1.173c.004.039.047-.188.096-.503s.144-.719.211-.897zm15.664 2.678c1.432-.366 2.802-1.429 4.136-3.208.674-.899 1.359-1.967 1.326-2.067-.027-.081-.793-.2-1.985-.308-1.035-.094-2.761-.095-3.516-.001-2.536.315-4.054 1.469-4.656 3.537-.098.338-.17.441-.47.678a6.92 6.92 0 0 1-1.671.887c-.368.116-.477.223-.17.167.537-.097 1.351-.322 1.758-.485l.433-.173.715.341c1.201.573 1.883.751 2.93.764.425.005.802-.037 1.169-.131zM36.344 58.32c.209-.688.326-.829.939-1.137a5.32 5.32 0 0 0 2.049-2.042c.652-1.331.8-3.154.432-5.31-.115-.671-.553-2.432-.647-2.6-.119-.213-2.46 2.091-3.244 3.193-.93 1.306-1.348 2.417-1.348 3.583 0 1.089.284 1.936.99 2.957l.347.503.103 1.065.112 1.134c.005.038.037-.148.07-.414a6.75 6.75 0 0 1 .197-.932zm7.706 2.963c.26-.078.773-.284 1.14-.458l.667-.315.506.211c1.255.522 2.74.705 3.803.469 1.896-.422 3.623-2.158 5.123-5.148.307-.612.37-.791.298-.841-.156-.107-3.857-.017-4.669.114-.997.16-1.807.403-2.531.76-1.369.674-2.102 1.593-2.489 3.121-.106.416-.229.735-.324.838-.292.316-1.052.851-1.551 1.092l-.5.271c0 .045.017.041.528-.113zm-6.096 11.745a9.55 9.55 0 0 0 .896-.698l.391-.357.778.083c2.464.261 4.226-.498 5.499-2.37.716-1.053 1.547-3.448 1.776-5.116l.044-.322-.2.046c-3.684.845-5.69 1.735-6.988 3.101-.849.894-1.192 1.808-1.195 3.193l-.002.847-.276.43c-.152.237-.544.693-.871 1.013-.651.637-.619.669.15.15zm-5.795.751c-1.048-1.841-1.349-2.51-1.511-3.359-.123-.643-.124-1.048-.004-1.557.084-.357.142-.441.621-.888a5.18 5.18 0 0 0 1.428-2.187c.218-.639.229-.721.232-1.706.003-.75-.03-1.197-.121-1.622-.19-.894-.623-2.126-1.086-3.095-.469-.981-1.289-2.426-1.376-2.426-.032 0-.289.349-.573.776-2.017 3.039-2.809 5.438-2.436 7.378.242 1.257.794 2.151 1.954 3.163l.514.449.376 1.035c.459 1.263.958 2.443 1.459 3.447.483.97.573 1.108.645.992.033-.054-.015-.212-.122-.401zm2.357 11.572a10.26 10.26 0 0 0 .69-.603l.414-.394.552.066a8.26 8.26 0 0 0 2.549-.15c1.793-.46 3.083-1.788 3.912-4.027.373-1.007.978-3.637.863-3.752-.059-.059-1.533.347-2.735.753-3.116 1.052-4.842 2.46-5.354 4.368-.078.289-.11.697-.108 1.351l.003.937-.286.443c-.157.244-.529.687-.825.986l-.539.57c0 .039.539-.304.863-.548zm-5.141.871c0-.059-.304-.438-.676-.841-1.149-1.247-1.647-1.903-2.045-2.69-.245-.485-.454-1.315-.454-1.808a.96.96 0 0 1 .24-.731c.78-1.088 1.134-2.019 1.19-3.13.044-.887-.051-1.537-.359-2.46-.565-1.691-1.788-3.552-3.581-5.454l-.505-.535-.429 1.095c-1.83 4.667-1.686 7.949.432 9.885.442.404.924.732 1.605 1.092.44.233.52.309.79.75.874 1.431 1.987 2.999 2.866 4.035l.679.808c.139.172.247.165.247-.016zm-.207 12.895c0-.083-.301-.339-.88-.748-2.143-1.516-2.894-2.319-3.31-3.538-.204-.6-.197-.796.051-1.342.866-1.911.557-4.048-.879-6.068-.502-.706-1.919-2.144-2.78-2.822-1.07-.841-2.009-1.466-2.065-1.375-.07.113-.336 1.894-.419 2.803-.314 3.45.399 5.98 2.062 7.31a6.18 6.18 0 0 0 2.527 1.218c.409.089.429.105 1.725 1.373l1.932 1.805 1.984 1.51c.029.001.052-.056.052-.125zm5.835 2.051a8.94 8.94 0 0 0 .542-.801l.243-.414.537-.084c.677-.106 1.869-.498 2.366-.777 1.472-.827 2.31-2.11 2.672-4.093.191-1.045.141-4.727-.064-4.727-.091 0-1.586.882-2.263 1.334-2.152 1.439-3.466 2.858-3.93 4.244-.327.976-.304 2.024.068 3.077l.209.594-.213.638c-.19.569-.361.916-.793 1.604l-.13.207.227-.207a5.83 5.83 0 0 0 .527-.594zm3.009 14.778a10.26 10.26 0 0 0 .384-1.04l.181-.594.503-.226c1.282-.577 2.41-1.505 2.943-2.421.842-1.448.914-3.461.214-5.934-.22-.777-.732-2.208-.79-2.208-.077 0-1.936 1.94-2.351 2.452-1.714 2.119-2.433 3.904-2.197 5.46.11.727.344 1.321.767 1.95.237.352.363.618.387.813.06.494-.116 1.45-.428 2.333l-.049.138.116-.138c.064-.076.208-.339.32-.584zm-7.488 4.342a6.34 6.34 0 0 1-.577-.779l-.259-.425-.001-1.139c-.001-1.071-.013-1.171-.195-1.688-.601-1.701-2.102-2.872-4.948-3.863-1.013-.352-2.475-.76-2.53-.705s.167 1.407.4 2.46c.607 2.751 1.551 4.396 2.941 5.127.808.425 1.383.537 2.693.528l1.122-.008.81.445.836.423c.014-.012-.117-.182-.292-.376z"
       id="path112" />
    <path
       d="M27.33 107.99a11.63 11.63 0 0 0-.272-.397 5.37 5.37 0 0 1-.677-1.353c-.112-.341-.11-.371.039-.897.226-.795.227-2.139 0-2.822-.517-1.56-1.716-2.769-4.064-4.103-.678-.385-2.791-1.384-2.927-1.384-.111 0-.032 2.87.107 3.882.384 2.797 1.251 4.328 2.904 5.123.729.351 1.262.494 2.208.593l.838.102c.082.016.53.325.997.686l.874.656c.014 0 .001-.039-.027-.086z"
       stroke="#000"
       stroke-width=".069"
       id="path114" />
    <path
       d="M36.827 127.093l.217-.652-.424-1.298c-2.906-8.902-4.817-17.647-5.481-25.072-.211-2.356-.251-3.171-.293-5.831-.069-4.435.172-7.827.839-11.801C33.6 71.027 38.68 60.913 47.39 51.172c1.187-1.327 5.097-5.241 6.484-6.491 4.298-3.872 9.045-7.553 14.337-11.119l1.881-1.302a.68.68 0 0 0-.071-.167c-.066-.123-.134-.093-.949.408-13.006 8.001-22.786 17.015-29.289 26.992-2.954 4.532-5.34 9.444-6.991 14.389-4.688 14.045-4.439 29.944.752 47.975.487 1.691 1.044 3.501 1.47 4.774l.193.577.621.261c.342.143.657.264.702.268s.178-.286.298-.644z"
       id="path116" />
  </g>
  <g
     id="g995">
    <path
       d="M127.713 32.03c-.32.001-.638.032-.922.096-1.474.328-2.702 1.405-3.196 2.801-.146.414-.189.68-.214 1.344-.027.698-.058.88-.197 1.157-.497.985-.52 2.29-.059 3.329.24.542.738 1.159 1.227 1.521.355.263.466.39.532.609.202.673.184.663.458.257.46-.683.741-.692 2.409-.074l1.567.497.605.141v.532c0 .451-.031.594-.204.94-.112.224-.252.593-.311.819a5.59 5.59 0 0 0-.004 2.108c.249.938.942 1.925 1.708 2.435.336.223.373.276.492.698.071.251.148.455.172.454s.141-.151.261-.334c.281-.43.608-.593 1.088-.542.193.021.874.227 1.513.459 1.16.422 2.125.692 2.473.693.33.001.402.065.402.355 0 .165-.082.434-.211.69-.454.899-.601 2.122-.371 3.095.24 1.02.949 2.067 1.777 2.626.448.302.46.318.611.821l.154.512.142-.198a6.54 6.54 0 0 1 .395-.478l.254-.279.54.004c.492.004.646.044 1.747.459l1.743.579.535.124v.404c0 .323-.034.449-.169.626-.242.317-.567 1.043-.698 1.558-.171.67-.113 1.884.12 2.537.288.805.849 1.557 1.618 2.167.091.073.168.273.23.603l.094.495.386-.408c.612-.648 1-.642 2.461.039 1.106.515 2.091.885 2.739 1.027.437.096.535.141.535.248 0 .072-.228.379-.507.682-1.559 1.693-1.714 4.065-.382 5.848.257.344.269.381.269.888v.529l.155-.114c.655-.48.773-.535 1.097-.505.442.04.739.21 1.891 1.085l1.377.973c.209.118.38.244.38.281s-.068.259-.151.494c-.127.358-.219.483-.569.777a5.21 5.21 0 0 0-1.344 1.716 4.36 4.36 0 0 0-.516 2.213 4.34 4.34 0 0 0 .785 2.623c.181.268.185.291.116.775-.039.275-.052.518-.03.541s.201-.069.397-.204c.851-.585 1.325-.434 2.783.891l.746.677-.504.148c-1.484.436-2.696 1.44-3.333 2.762-.362.75-.518 1.416-.518 2.206v.592l-.351.447-.351.448.576.001c1.05.002 1.381.352 1.891 1.992l.938 2.623.265.604c0 .014-.089.025-.196.025-.339 0-1.267.268-1.799.52-1.74.825-2.81 2.27-3.058 4.132l-.083.627-.399.369c-.219.203-.382.397-.361.432s.184.062.362.062c.465.001.81.114 1.089.359.45.395.566.746.89 2.698.419 2.521 1.093 3.942 2.571 5.413.523.52.571.59.571.841 0 1.305-1.545 5.057-3.574 8.68l-.399.685-.373.538-.206 1.737 2.317-.893.274-.905c.024-.002.047.003.063.018.031.028.035.013.008-.034s.188-.526.498-1.104l1.623-3.158 2.292-4.152c.207-.19.611-.27 2.031-.403 1.31-.122 2.117-.295 2.723-.584.235-.112.937-.601 1.561-1.086 2.397-1.864 4.095-2.785 4.618-2.505.107.057.204.055.382-.01.27-.098.276-.125.109-.504-.119-.27-.119-.278.068-.725.636-1.521.504-3.225-.362-4.673-.311-.52-1.13-1.382-1.596-1.679-.375-.239-.379-.246-.426-.656-.083-.721-.259-1.283-.629-2.012l-.36-.708.927-.803c2.187-1.895 3.07-2.36 3.996-2.101.305.085.324.082.495-.088l.177-.177-.177-.302-.177-.302.142-.48c.166-.563.201-1.872.064-2.378-.418-1.538-1.44-2.806-2.788-3.459-.233-.113-.341-.211-.368-.335-.206-.945-.632-1.787-1.305-2.582l-.417-.491.191-.345c.277-.501.67-1.532 1.196-3.136l.695-1.954c.452-1.057.987-1.661 1.55-1.751.228-.036.263-.069.303-.28.051-.27-.016-.384-.296-.499-.161-.067-.217-.17-.375-.689-.335-1.101-1.181-2.13-2.179-2.651-.764-.399-1.32-.54-2.289-.581l-.863-.036-.323-.3a7.23 7.23 0 0 0-.815-.619c-.312-.202-.48-.353-.457-.411.02-.051.194-.8.387-1.663.518-2.311.754-2.937 1.281-3.4.137-.121.337-.236.444-.258.148-.03.204-.089.236-.248.069-.345.053-.379-.234-.494-.152-.061-.276-.154-.276-.207s-.129-.356-.287-.673c-.406-.816-1.176-1.583-1.99-1.983-.781-.383-1.424-.514-2.346-.475l-.723.03-.45-.346c-.499-.384-1.267-.766-1.774-.883l-.332-.076.017-2.252c.017-2.317.08-3.084.288-3.564.117-.268.559-.725.702-.725.04 0 .061-.125.049-.291-.02-.281-.031-.294-.304-.347-.239-.047-.323-.113-.54-.428-1.128-1.638-3.301-2.353-5.262-1.731l-.533.169-.218-.134c-.12-.074-.416-.209-.659-.3-.431-.162-.442-.172-.459-.432l-.197-1.987c-.222-2.132-.209-2.875.059-3.423.113-.231.268-.427.399-.505.138-.082.201-.163.176-.229-.022-.056-.039-.175-.039-.264 0-.135-.046-.168-.292-.21s-.362-.126-.735-.529c-.755-.816-1.572-1.276-2.615-1.476-.943-.18-1.876-.084-2.752.285l-.424.179-.266-.134c-.368-.186-.971-.351-1.468-.403-.487-.051-.424.11-.598-1.525a16.12 16.12 0 0 1-.087-1.829c.022-.699.044-.81.214-1.1.104-.178.252-.343.328-.367.11-.035.138-.104.138-.345v-.302l-.303-.045c-.254-.038-.34-.095-.53-.349-.457-.61-1.403-1.212-2.278-1.45s-2.234-.124-2.95.243c-.23.118-.246.117-.65-.046-.227-.092-.604-.206-.837-.254l-.423-.086-.151-1.339c-.251-2.224-.204-2.912.23-3.347.186-.186.231-.286.231-.51 0-.27-.007-.279-.233-.279-.197 0-.283-.058-.554-.376-.421-.493-1.191-1.002-1.836-1.213-.426-.139-.65-.168-1.276-.165-.652.003-.832.03-1.276.194-.285.105-.564.191-.621.192s-.321-.082-.587-.184c-.409-.157-.951-.24-1.485-.238z"
       fill="#221b1b"
       id="path120" />
    <path
       d="M124.348 41.481c-.413-.419-.795-1.133-.914-1.708-.151-.727.037-1.742.437-2.36.139-.214.152-.291.103-.591a3.64 3.64 0 0 1-.016-.77c.151-1.572 1.223-2.857 2.757-3.307a4.23 4.23 0 0 1 2.85.304c.225.121.233.12.621-.068.216-.105.562-.227.769-.27.542-.114 1.472-.047 1.959.141.418.161 1.224.673 1.268.806.015.046-.14.094-.401.124a3.22 3.22 0 0 0-2.485 1.586c-.205.346-.255.389-.406.354a7.38 7.38 0 0 0-.664-.082c-1.677-.148-3.408 1.455-3.246 3.007l.04.384-.396.185a3.39 3.39 0 0 0-1.71 1.981c-.206.712-.164.691-.565.284zm6.741 8.29a3.71 3.71 0 0 1-1.137-3.486c.062-.261.221-.682.354-.935.236-.45.241-.473.199-1.043-.101-1.38.525-2.763 1.627-3.594.744-.561 1.559-.824 2.553-.824.718 0 1.248.113 1.839.393l.379.179.393-.177c.834-.374 1.698-.482 2.509-.314a4.3 4.3 0 0 1 1.686.847l.336.305-.345.044a5.35 5.35 0 0 0-1.546.44c-.478.231-1.149.893-1.414 1.395l-.207.39c-.004.006-.177-.032-.384-.086-1.425-.37-3.154.483-3.816 1.881-.199.42-.224.541-.23 1.109l-.006.638-.481.241c-.917.459-1.62 1.353-1.873 2.384l-.121.492-.315-.277zm7.513 8.108c-1.283-1.262-1.564-3.141-.705-4.716.231-.425.233-.435.195-1.104-.136-2.366 1.497-4.352 3.874-4.713.882-.134 1.697-.013 2.563.381l.493.224.404-.198c.832-.407 1.914-.521 2.847-.301a4.46 4.46 0 0 1 1.757.933l.349.321-.445.049c-1.102.121-1.862.457-2.516 1.111-.228.228-.518.611-.646.852-.213.402-.247.434-.414.395l-.614-.124c-1.201-.227-2.792.544-3.533 1.712-.398.627-.577 1.473-.425 2.005.061.212.056.218-.35.405-1.161.536-1.998 1.565-2.219 2.73-.043.226-.114.41-.158.41s-.25-.167-.457-.371zm6.817 8.635c-1.201-1.362-1.31-3.288-.276-4.847.261-.393.274-.438.284-1 .023-1.219.469-2.245 1.368-3.145a4.37 4.37 0 0 1 3.28-1.341c.841 0 1.413.138 2.107.507l.556.296.296-.126c.803-.341 1.84-.429 2.693-.228.631.149 1.339.546 1.828 1.024l.422.413-.621.059c-1.128.106-1.886.415-2.564 1.046-.222.206-.512.547-.645.758-.168.266-.273.371-.345.343l-.38-.148c-.442-.172-1.482-.149-2.049.045-.98.335-1.811 1.047-2.244 1.924-.229.464-.263.597-.276 1.081l-.014.552-.408.154c-1.133.426-2.104 1.433-2.437 2.527-.078.258-.168.469-.199.469s-.201-.163-.376-.362zm6.067 8.885c-.364-.621-.464-.989-.497-1.828-.029-.724-.016-.842.151-1.338.243-.724.463-1.083 1.023-1.673.43-.453.478-.534.603-1.024.446-1.745 1.793-3.044 3.568-3.444 1.38-.311 2.817.046 3.922.974.443.372.502.402.69.345.113-.034.516-.063.896-.064.562-.002.795.031 1.253.179.958.309 1.805.997 2.259 1.833l.199.368-.199-.05c-.11-.028-.37-.079-.579-.113-1.195-.197-2.371.156-3.274.983l-.443.406-.446-.245c-.564-.31-1.314-.474-1.876-.41-1.641.188-2.952 1.194-3.259 2.501l-.113.482-.384.044c-1.205.139-2.485.991-3.016 2.007-.109.208-.22.378-.247.379s-.131-.14-.231-.311zm3.43 11.008c-.338-.554-.459-1.083-.456-2.001.002-.792.02-.908.214-1.417.352-.922.824-1.572 1.582-2.175.244-.194.444-.4.444-.457 0-.167.347-.985.604-1.423a6.11 6.11 0 0 1 1.607-1.673c2.146-1.426 4.799-1.212 6.485.525l.38.391.483-.055c1.787-.202 3.481.69 4.248 2.237.162.328.281.61.264.627s-.232-.035-.477-.115c-.666-.22-1.993-.22-2.628 0a5.36 5.36 0 0 0-1.593.918l-.325.273-.434-.297c-.644-.441-1.106-.57-2.022-.563-.658.004-.838.033-1.354.213-1.299.454-2.236 1.343-2.499 2.371l-.096.378-.579.045c-1.47.115-2.847.993-3.623 2.309-.071.12-.088.112-.224-.112zm17.001 11.675c-.991-1.098-2.369-1.681-3.724-1.574l-.836.086-.281.042-.148-.405c-.472-1.294-2.038-2.279-3.741-2.353-1.174-.051-2.012.216-2.701.86l-.336.314-.397-.21a5.01 5.01 0 0 0-4.346-.119l-.501.232v-.395c0-.526.154-1.105.462-1.735.192-.394.395-.66.848-1.113.501-.502.698-.645 1.247-.909.647-.311 1.429-.532 1.881-.532.186 0 .344-.088.745-.416.626-.51 1.537-.99 2.251-1.185.764-.209 2.241-.209 3.005 0 1.615.441 3.057 1.693 3.594 3.12a6.63 6.63 0 0 1 .251.867l.082.417.463.216c1.223.57 2.084 1.537 2.534 2.847.101.293.13.575.13 1.242-.001 1.137-.039 1.193-.482.702zm-1.829 13.978c-.095-.16-.437-.556-.759-.88-.983-.987-1.967-1.386-3.433-1.392-.756-.003-.776-.007-.776-.157 0-.246-.259-.93-.485-1.282-.255-.398-.879-.995-1.353-1.295-.769-.487-2.168-.837-2.953-.739s-1.435.353-1.862.728l-.239.21-.332-.255c-1.048-.805-2.63-1.162-3.958-.894a5.54 5.54 0 0 0-.877.247c-.357.157-.36.144-.156-.653.202-.788.57-1.425 1.175-2.035.998-1.005 2.254-1.523 3.693-1.523.569 0 .589-.006 1.053-.306a6.04 6.04 0 0 1 1.838-.813c.781-.209 2.18-.206 2.972.007 1.12.301 2.056.855 2.829 1.675.847.899 1.322 1.942 1.396 3.072l.037.564.534.348a5.06 5.06 0 0 1 1.988 2.504c.166.456.185.599.185 1.438 0 .698-.031 1.031-.123 1.328-.067.218-.145.396-.173.395s-.127-.133-.222-.293z"
       fill="#fefefe"
       id="path122" />
    <path
       d="M129.199 42.932c-.266-.071-.914-.288-1.441-.483-1.351-.5-1.7-.547-2.278-.309-.122.05-.128.029-.084-.32.138-1.1 1.105-2.087 2.272-2.321.213-.043.212-.028.011-.572-.312-.845.324-1.967 1.402-2.472.569-.267 1.337-.265 1.885.005.444.218.476.224.476.094 0-.224.569-1.215.837-1.457.477-.431 1.075-.668 1.79-.709l.616-.008c0 .015-.067.198-.148.406-.187.477-.2 1.514-.037 2.933l.131 1.242.02.276-.462.046c-1.875.186-3.54 1.526-4.078 3.283-.175.573-.157.566-.912.365zm7.419 8.35c-.566-.124-.973-.257-2.45-.796-.882-.322-1.475-.38-1.855-.18l-.268.141.036-.45c.04-.503.31-1.125.683-1.574.315-.379.974-.784 1.551-.954l.491-.145-.172-.377c-.455-.994.199-2.256 1.484-2.865.411-.195.536-.221 1.056-.221s.64.025 1.023.215l.434.215.072-.181c.243-.604.51-1.075.786-1.382.536-.597 1.51-.971 2.529-.973.18 0 .328.008.328.019a2.96 2.96 0 0 1-.132.28c-.312.612-.344 1.641-.109 3.528.142 1.139.142 1.141-.087 1.142-.386.002-1.105.22-1.737.526-.554.269-.742.409-1.277.946-.345.347-.73.807-.856 1.022-.289.493-.555 1.252-.619 1.766-.059.475-.073.479-.912.295zm7.591 8.244c-.323-.089-1.037-.331-1.587-.538l-1.369-.461c-.439-.103-.935-.067-1.252.092-.127.063-.246.1-.264.082s.003-.259.047-.535c.211-1.311 1.137-2.308 2.514-2.709.216-.063.393-.129.393-.147s-.069-.163-.153-.323c-.116-.219-.154-.409-.154-.774-.002-.641.229-1.142.771-1.677.962-.95 2.168-1.211 3.251-.703.502.235.495.233.495.13 0-.042.122-.336.271-.654.486-1.038 1.219-1.625 2.317-1.857.505-.107 1.445-.142 1.4-.053a3.43 3.43 0 0 0-.403 1.237c-.075.576-.061.856.141 2.852l.164 1.674.034.397h-.702c-1.132.001-2.035.266-2.945.866a4.95 4.95 0 0 0-2.109 2.754c-.085.264-.18.487-.213.495s-.323-.059-.646-.148zm7.557 9.238c-.585-.125-1.556-.492-2.76-1.044-1.259-.577-1.703-.667-2.275-.464-.15.054-.284.087-.297.074-.06-.06.214-.995.382-1.307.451-.835 1.433-1.532 2.426-1.721.231-.044.42-.115.42-.159s-.05-.199-.112-.346c-.381-.912.384-2.28 1.595-2.852.972-.46 1.819-.449 2.618.031l.386.233.198-.393c.612-1.211 1.481-1.862 2.705-2.026.321-.043.755-.055.974-.028l.395.049-.207.367c-.373.662-.439 1.154-.445 3.35l-.02 2.398-.014.431-.397.002c-2.048.012-3.878 1.179-4.84 3.086l-.234.426a39.52 39.52 0 0 0-.499-.109zm4.681 9.747c-.43-.246-.869-.557-1.743-1.234-1.083-.839-1.36-.976-1.988-.979-.467-.002-.497-.011-.457-.14.122-.395.434-.872.813-1.242.687-.672 1.49-.998 2.461-1l.523-.001-.001-.535c-.001-.444.029-.593.179-.88.29-.554.904-1.082 1.559-1.341 1.139-.449 2.296-.268 3.009.47l.27.28.535-.572c1.148-1.227 2.34-1.49 4.111-.908.045.015-.037.149-.187.307-.527.554-.834 1.381-1.307 3.524l-.35 1.532-.068.255-.264-.093c-.782-.276-2.05-.306-3.021-.071-1.367.33-2.809 1.339-3.576 2.501l-.202.292a10.35 10.35 0 0 1-.296-.165zm2.042 10.294c-1.136-1.022-1.358-1.193-1.824-1.406a1.32 1.32 0 0 0-.794-.15l-.402.029.211-.417c.294-.582.998-1.268 1.625-1.584.694-.349 1.164-.457 2.003-.457h.716l-.045-.204c-.025-.114.003-.39.063-.625.19-.742.713-1.336 1.539-1.746.676-.336 1.07-.427 1.813-.422.905.007 1.338.178 1.905.756l.422.429.456-.458c1.241-1.247 2.703-1.555 4.396-.928l.48.178-.275.199c-.665.482-1.107 1.365-1.936 3.866-.526 1.587-1.153 3.165-1.257 3.165a8.9 8.9 0 0 1-.574-.312c-1.129-.645-2.565-.945-3.831-.801-1.226.139-2.513.668-3.366 1.382-.186.156-.366.283-.4.283s-.45-.349-.925-.776zm8.199 13.232c-1.782-1.679-4.408-2.234-6.744-1.426-.478.165-1.209.529-1.496.745-.121.091-.281.165-.356.165-.259 0-.844-1.251-1.29-2.76-.583-1.972-.872-2.503-1.546-2.839l-.372-.186.336-.213c.714-.453 1.582-.664 2.501-.61.877.052 1.487.286 2.525.968.1.066.137.066.16.002.077-.21.426-.651.666-.841.428-.339.96-.509 1.702-.543 1.188-.055 2.201.307 2.936 1.047.466.468.673.853.784 1.453l.094.424c.011.011.251-.042.535-.118 1.893-.503 3.446.033 4.709 1.626l.272.343-.463.085c-.909.168-1.714.67-3.414 2.127l-1.093.912c-.026.008-.226-.154-.445-.361zm-13.853 25.612a27.3 27.3 0 0 1 .587-1.018 63.01 63.01 0 0 0 2.65-5.213c1.01-2.341 1.45-4.027 1.249-4.786-.064-.242-.191-.416-.579-.793-.871-.847-1.431-1.663-1.833-2.669-.284-.71-.459-1.423-.695-2.817-.215-1.275-.349-1.81-.555-2.213-.141-.278-.598-.717-.818-.787-.08-.025-.146-.071-.146-.101 0-.095.805-.421 1.293-.525a4.56 4.56 0 0 1 3.874 1.045l.421.381.38-.41c.429-.463.796-.652 1.507-.776.895-.156 2.044.128 2.945.727.914.608 1.45 1.558 1.45 2.57v.239l.431-.052c2.192-.264 3.649.427 4.762 2.26l.259.469c0 .023-.179.08-.397.126-.907.19-2.795 1.363-4.769 2.965-1.022.83-1.612 1.02-3.771 1.221-1.337.124-1.813.239-2.108.506-.289.262-1.197 1.885-2.46 4.397l-2.362 4.473c-.224.364-.292.421-.728.604-.462.194-.589.232-.589.176z"
       fill="#00994a"
       id="path124" />
  </g>
  <g
     id="g1012">
    <path
       d="M74.559 136.004l2.287.839q.546.2.956.557.416.353.574.862.158.508-.071 1.133-.156.425-.499.696-.343.272-.706.323.251.224.4.57.149.346.168.728.02.378-.099.704-.217.593-.675.917-.453.326-1.032.373-.577.043-1.146-.166l-2.571-.943zm1.425 3.535q.402.147.72.058.323-.088.488-.536.137-.373-.07-.676-.207-.304-.65-.466l-1.12-.411-.581 1.587zm-.838 2.879q.467.171.797.033.336-.136.504-.594.088-.238.033-.48-.053-.246-.238-.448-.184-.205-.488-.316l-1.358-.498-.655 1.787zm7.015-3.873l2.219.484q.651.142 1.137.502.492.356.712.887.221.526.086 1.148-.092.422-.34.745-.247.318-.61.508-.357.192-.78.242l1.244 3.47-1.413-.307-1.052-3.301-.398-.087-.427-.093-.639 2.933-1.234-.269zm1.695 3.431q.495.088.824-.09.329-.177.414-.566.093-.427-.163-.747-.255-.325-.779-.439l-.986-.215-.397 1.821zm6.079-1.989l4.662.309-.076 1.156-3.403-.225-.117 1.77 3.169.21-.076 1.156-3.169-.21-.115 1.735 3.403.225-.079 1.19-4.662-.309zm7.702.252l2.425-.23q.579-.055 1.102.09.528.14.889.53.361.39.425 1.053.043.45-.15.843-.192.393-.498.597.323.094.607.342.283.247.465.585.181.333.214.679.059.628-.213 1.119-.268.49-.769.782-.502.288-1.106.344l-2.726.259zm2.81 2.574q.426-.04.674-.259.253-.219.209-.694-.037-.396-.354-.58-.317-.184-.787-.14l-1.187.113.159 1.683zm.486 2.959q.495-.047.734-.314.244-.268.198-.752-.024-.252-.177-.448-.154-.2-.407-.301-.254-.105-.577-.075l-1.439.137.18 1.895zm4.55-6.556l4.532-1.138.282 1.123-3.307.831.433 1.721 3.081-.774.282 1.123-3.081.774.423 1.688 3.307-.831.291 1.157-4.532 1.138zm12.087 3.678q-.596.238-1.217.234-.617-.005-1.158-.287-.538-.288-.886-.867l1.046-.76q.292.558.779.706.492.146 1.041-.073.337-.134.54-.338.201-.208.249-.447.049-.239-.045-.475-.113-.282-.367-.41-.25-.13-.56-.157-.31-.026-.834-.026-.685 0-1.129-.053-.446-.057-.852-.313-.402-.257-.621-.806-.222-.558-.112-1.074.113-.522.49-.918.382-.398.94-.621.628-.251 1.259-.17.63.076 1.183.524l-.737.984q-.303-.265-.653-.334-.35-.074-.679.057-.231.092-.385.255-.15.162-.196.367-.044.199.037.402.1.249.331.36.232.111.524.134.297.021.793.016.703-.008 1.165.049.461.057.883.322.421.265.65.838.24.6.113 1.169-.122.567-.543 1.014-.421.446-1.049.697z"
       id="path4" />
    <g
       transform="matrix(1.056601 0 0 1.047421 -5.414018 -6.36126)"
       id="g152">
      <g
         stroke="#000"
         id="g144">
        <g
           fill="none"
           id="g136">
          <path
             d="M27.283 122.498c9.861 12.869 4.682 44.986 24.221 37.026 16.187-13.008-7.97-24.806-4.783-40.729l-6.788 8.794z"
             fill="#fff"
             stroke-width=".676"
             id="path126" />
          <path
             id="use128"
             d="m 32.457,124.581 2.41,5.028 c 2.081,6.236 3.071,12.926 4.527,18.213 1.121,4.071 2.43,5.529 3.779,6.698 1.265,1.096 2.817,2.979 6.358,1.654 2.987,-2.543 3.805,-4.419 3.842,-6.334 0.039,-2.031 -0.976,-4.669 -2.684,-7.77 -2.1,-3.812 -5.078,-8.348 -6.742,-13.518 l -0.62,-5.36"
             style="stroke-width:1.587;" />
          <g
             transform="matrix(-1 0 0 1 -17.26148 -71.01)"
             id="g134">
            <path
               d="M-181.326 193.508c9.861 12.869 4.682 44.986 24.221 37.026 16.187-13.008-7.97-24.806-4.783-40.729l-6.788 8.794z"
               fill="#fff"
               stroke-width=".676"
               id="path130" />
            <path
               id="use132"
               d="m -176.15199,195.591 2.41,5.028 c 2.081,6.236 3.071,12.926 4.527,18.213 1.121,4.071 2.43,5.529 3.779,6.698 1.265,1.096 2.817,2.979 6.358,1.654 2.987,-2.543 3.805,-4.419 3.842,-6.334 0.039,-2.031 -0.976,-4.669 -2.684,-7.77 -2.1,-3.812 -5.078,-8.348 -6.742,-13.518 l -0.62,-5.36"
               style="stroke-width:1.587;" />
          </g>
        </g>
        <g
           stroke-linejoin="round"
           id="g142">
          <path
             d="M54.748 134.119l-15.565 13.613.792.732c14.582 13.127 35.077 20.77 55.699 20.77s41.117-7.642 55.699-20.77l.792-.732-15.564-13.613c-10.745 9.956-25.507 15.573-40.926 15.573s-30.182-5.618-40.927-15.574z"
             fill="#fff"
             opacity=".999"
             stroke-width=".676"
             id="path138" />
          <path
             d="M51.532 136.985l.593.542c11.401 10.264 27.426 16.239 43.549 16.239s32.148-5.975 43.549-16.239l.62-.567m-97.917 8.307l.795.727c13.863 12.48 33.348 19.746 52.954 19.746s39.091-7.266 52.954-19.746l.697-.637"
             fill="none"
             stroke-width="1.588"
             id="path140" />
        </g>
      </g>
      <path
         d="M47.155 145.693l3.036-4.036.999.752-1.471 3.205 2.666-2.306 1.002.754-3.036 4.036-.619-.466 2.39-3.177-3.048 2.682-.644-.485 1.737-3.668-2.39 3.177zm7.001 4.928l-.759-.5.329-1.157-1.381-.91-.916.77-.742-.489 4.125-3.33.739.487zm-.187-2.516l.556-1.878-1.5 1.256zm.578 2.744l2.538-4.367.703.409-.229 3.768 1.695-2.916.673.391-2.538 4.367-.727-.422.213-3.685-1.655 2.847zm6.172 1.293l.385-.759 1.607.816-.911 1.794q-.388.162-.938.142-.55-.02-.998-.248-.547-.278-.829-.757-.281-.482-.255-1.142.03-.661.398-1.386.377-.743.891-1.147.517-.402 1.043-.464.529-.06 1.079.219.66.335.885.874.229.538.012 1.247l-.823-.205q.093-.389-.034-.686-.128-.297-.435-.453-.476-.242-.96-.02-.482.219-.867.978-.413.814-.309 1.4.088.504.555.741.218.111.503.128.29.016.564-.069l.29-.571zm1.472 2.794l2.042-4.619 2.811 1.243-.345.781-2.048-.905-.453 1.024 1.903.841-.344.778-1.903-.841-.556 1.257 2.117.936-.344.778zm3.929-.069l.797.203q-.219.953.494 1.228.354.136.627.031.274-.108.38-.382.062-.161.035-.301-.027-.14-.145-.266-.116-.13-.607-.514-.44-.343-.603-.609-.163-.266-.191-.605-.024-.341.104-.672.149-.386.441-.628.296-.241.665-.279.369-.039.823.136.682.263.922.78.24.517-.002 1.214l-.797-.259q.095-.399-.018-.616-.112-.217-.427-.338-.315-.121-.536-.055-.221.066-.297.262-.074.193.029.384.104.191.599.563.523.397.71.687.192.288.215.64.024.349-.139.773-.237.614-.777.886-.537.273-1.341-.036-1.421-.547-.959-2.226z"
         id="path146" />
      <path
         d="M70.22 158.137l1.326-3.981-1.167-.389.27-.811 3.122 1.04-.27.811-1.164-.388-1.326 3.981zm2.454.787l1.442-4.84.799.238-1.442 4.84zm3.684 1.041l.167-5.144.836.192-.172 3.52 1.515-3.212.97.223-.081 3.601 1.411-3.296.819.188-2.111 4.697-.866-.199.039-3.865-1.644 3.497zm4.74 1.028l.913-4.967.82.151-.913 4.967zm4.499-1.15l.756.428q-.31.811-.804 1.136-.493.321-1.13.228-.801-.117-1.208-.807-.468-.796-.291-2.006.187-1.278.869-1.916.593-.554 1.438-.43.689.101 1.083.639.282.383.339 1.063l-.853.119q-.019-.417-.223-.666-.2-.252-.517-.299-.453-.066-.798.287-.344.353-.478 1.264-.138.944.083 1.384.221.44.668.505.327.048.603-.169.276-.221.463-.757zm4.959 2.383l-.906-.084-.254-1.176-1.647-.153-.446 1.111-.885-.082 2.073-4.88.882.082zm-1.348-2.132l-.392-1.919-.733 1.814zm1.793 2.151l.198-5.047 1.759.069q.675.026.958.175.284.146.457.49.173.341.154.809-.023.592-.323.942-.296.35-.823.423.261.203.427.441.167.234.446.838l.464 1.004-.995-.039-.563-1.122q-.304-.608-.415-.761-.111-.156-.24-.216-.129-.064-.418-.075l-.172-.007-.083 2.107zm.947-2.88l.62.024q.568.022.725-.02.157-.046.259-.193.102-.148.112-.399.009-.241-.081-.389-.091-.152-.254-.213-.116-.042-.677-.065l-.654-.026zm6.958 2.965l-.909.013-.378-1.142-1.653.024-.324 1.152-.889.013 1.539-5.073.885-.013zm-1.569-1.976l-.596-1.866-.534 1.882zm3.41 1.862l-.429-5.032 3.062-.261.073.851-2.231.19.095 1.116 2.073-.177.072.848-2.073.177.117 1.37 2.307-.196.072.848zm3.156-5.349l1.642-.224q.672-.092.962-.006.29.086.52.371.23.285.284.677.049.362-.071.677-.121.312-.358.487.383.08.631.366.251.286.313.736.075.546-.136.961-.212.411-.558.549-.241.095-1.149.22l-1.396.191zm.94.72l.158 1.157.546-.075q.492-.067.605-.1.207-.063.307-.223.099-.163.065-.412-.03-.222-.148-.345-.115-.127-.259-.142-.141-.016-.797.074zm.272 1.99l.183 1.338.768-.105q.505-.069.642-.14.136-.074.21-.241.078-.171.045-.409-.034-.246-.161-.388-.124-.146-.306-.181-.179-.038-.712.035zm7.275 1.008l-.893.17-.57-1.059-1.624.309-.121 1.191-.873.166.639-5.263.87-.166zm-1.886-1.675l-.909-1.735-.201 1.946zm2.319 1.57l-1.201-4.906.81-.198.473 1.931 1.593-.39-.473-1.931.813-.199 1.201 4.906-.813.199-.525-2.145-1.593.39.525 2.145zm4.019-1.022l-1.376-4.859.802-.227 1.376 4.86zm1.584-.44l-1.55-4.807.774-.249 2.648 2.69-1.035-3.21.741-.239 1.55 4.807-.8.258-2.597-2.623 1.01 3.135zm5.096-3.72l-.305-.795 1.682-.645.72 1.879q-.139.397-.523.791-.384.394-.854.574-.573.219-1.117.107-.546-.115-1.018-.577-.47-.466-.761-1.225-.298-.779-.253-1.43.049-.653.356-1.084.31-.432.886-.653.692-.265 1.242-.07.553.19.933.827l-.704.473q-.226-.33-.532-.434-.306-.104-.627.019-.499.191-.658.699-.161.504.144 1.299.327.853.831 1.168.433.273.922.086.228-.088.432-.287.206-.204.327-.465l-.229-.598zm4.533.144l-2.147-4.571 1.216-.571q.68-.319.919-.352.383-.051.761.194.381.244.637.789.233.496.204.92-.03.422-.247.691-.218.266-.904.588l-.496.233.81 1.724zm-1.029-4.152l.609 1.297.418-.196q.421-.198.543-.327.125-.131.15-.329.023-.201-.082-.426-.107-.228-.28-.337-.173-.109-.344-.093-.171.016-.645.238zm4.518 2.494l-2.381-4.454 1.553-.83q.595-.318.916-.333.319-.018.642.192.322.207.543.62.279.523.198.976-.079.452-.497.781.328.043.592.164.262.118.809.497l.908.632-.878.469-1.053-.683q-.57-.371-.743-.447-.175-.078-.316-.065-.143.01-.398.147l-.152.081.994 1.859zm-.639-2.963l.547-.292q.501-.268.615-.384.112-.119.126-.298.014-.179-.105-.401-.114-.213-.267-.295-.155-.085-.327-.056-.121.022-.616.287l-.577.309zm7.499-.963l-.777.472-.905-.793-1.413.859.304 1.158-.76.462-1.245-5.153.757-.46zm-2.354-.908l-1.459-1.306.493 1.893zm1.116-4.368l.693-.47 1.795 2.646q.435.641.52 1.042.084.401-.058.743-.14.34-.513.594-.493.335-1.003.185-.51-.15-.977-.832l.591-.534q.261.36.448.458.254.136.477-.015.217-.147.217-.368-.002-.224-.358-.748zm7.235.952l-.725.549-.981-.697-1.319.998.42 1.121-.709.536-1.761-5.001.706-.534zm-2.434-.665l-1.584-1.152.683 1.833z"
         id="path148" />
      <path
         d="M70.82 159.277a.529.529 0 0 1-1.059 0 .529.529 0 1 1 1.059 0z"
         opacity=".998"
         fill-rule="evenodd"
         id="path150" />
    </g>
  </g>
  <path
     d="M88.174 29.319l7.501-4.419 7.501 4.419-1.884-8.499 6.52-5.768-8.665-.834-3.47-7.984-3.472 7.984-8.665.834 6.52 5.768z"
     fill="#fff000"
     stroke="#000"
     stroke-width=".82"
     id="path154" />
  <defs
     id="defs157">
    <path
       id="B"
       d="M32.457 124.581l2.41 5.028c2.081 6.236 3.071 12.926 4.527 18.213 1.121 4.071 2.43 5.529 3.779 6.698 1.265 1.096 2.817 2.979 6.358 1.654 2.987-2.543 3.805-4.419 3.842-6.334.039-2.031-.976-4.669-2.684-7.77-2.1-3.812-5.078-8.348-6.742-13.518l-.62-5.36" />
  </defs>
</svg>
