<?xml version="1.0" encoding="iso-8859-1"?>
<!-- Uploaded to: SVG Repo, www.svgrepo.com, Generator: SVG Repo Mixer Tools -->
<svg fill="#000000" height="800px" width="800px" version="1.1" id="Layer_1" xmlns="http://www.w3.org/2000/svg" xmlns:xlink="http://www.w3.org/1999/xlink" 
	 viewBox="0 0 512.853 512.853" xml:space="preserve">
<g transform="translate(1 1)">
	<g>
		<g>
			<path d="M494.787,291.184c-17.067-25.6-40.96-47.787-107.52-75.947c-2.56-0.853-5.12-2.56-7.68-3.413
				c-17.92-9.387-32.427-22.187-43.52-38.4c-3.321-4.982-7.722-9.599-12.499-13.397l0.552-10.496c0-5.856-2.797-10.866-6.942-14.09
				l23.155-101.11c0.853-3.413-1.707-7.68-5.12-9.387c-3.413-1.707-8.533-0.853-11.947,1.707l-33.646,50.225l-9.874-49.371
				c-0.853-4.267-3.413-6.827-7.68-6.827c-4.267,0-7.68,2.56-8.533,5.973l-12.669,46.243L202.093,2.757
				c-2.56-2.56-6.827-4.267-10.24-2.56s-5.973,5.12-5.12,9.387l23.893,113.493c0.853,5.12,0,11.093-3.413,19.627
				c-0.853,2.56-1.707,5.12-1.707,6.827l-0.114,1.258c-11.955,3.635-22.419,11.303-29.752,22.635
				c-10.24,16.213-25.6,29.013-44.373,38.4c-2.56,0.853-5.12,2.56-7.68,3.413c-66.56,28.16-90.453,50.347-107.52,75.947
				C1.56,313.37-1,338.117-1,355.183c0,0,0,0.853,0,1.707s0,0.853,0,1.707c0,8.533,1.707,16.213,4.267,24.747
				c2.56,9.387,6.827,17.067,11.947,24.747c25.597,37.722,80.448,61.083,163.697,69.672c4.15,0.609,8.316,1.168,12.499,1.674
				l-7.236,2.894c-5.12,1.707-6.827,6.827-5.12,11.093c0.853,3.413,4.267,5.12,7.68,5.12c0.853,0,1.707,0,3.413,0l31.289-12.516
				l-6.542,6.542c-3.413,3.413-3.413,8.533,0,11.947c1.707,1.707,3.413,2.56,5.973,2.56s4.267-0.853,5.973-2.56l19.627-19.627v17.92
				c0,5.12,3.413,8.533,8.533,8.533s8.533-3.413,8.533-8.533v-18.597l19.627,20.303c1.707,1.707,3.413,2.56,5.973,2.56
				s4.267-0.853,5.973-2.56c3.413-3.413,3.413-8.533,0-11.947l-9.944-10.287c1.129-0.065,2.254-0.14,3.38-0.212L319,497.69
				c1.707,0.853,2.56,0.853,4.267,0.853c3.413,0,5.973-1.707,6.827-4.267c2.56-3.413,0.853-8.533-3.413-11.093l-7.677-3.937
				c2.332-0.285,4.656-0.582,6.967-0.898c86.604-8.074,143.465-31.642,169.67-70.259c5.12-7.68,9.387-16.213,11.947-24.747
				s4.267-16.213,4.267-24.747c0,0,0-0.853,0-1.707s0-0.853,0-1.707C511.853,337.264,509.293,312.517,494.787,291.184z
				 M300.335,131.61h-8.641l-8.56-12.31l29.893-44.01L300.335,131.61z M270.36,64.197l6.772,31.321l-4.481,6.688l-9.118-13.263
				L270.36,64.197z M263.332,121.257c0.205,0.981,0.544,1.907,1.055,2.673l15.36,24.747c1.707,2.56,5.12,4.267,7.68,4.267H306.2h0
				v2.209c-0.467,0.369-0.884,0.787-1.249,1.258c-0.932,0.91-1.551,2.133-2.164,3.36l-15.687,38.805l-15.886-21.739
				c-3.413-3.413-8.533-4.267-11.947-1.707l-17.28,11.52l-16.853-33.707c-0.853-1.707-1.707-2.56-3.413-3.413v-0.853v-0.853
				c2.56-6.827,6.827-17.067,4.267-29.013L211.48,45.424L263.332,121.257z M493.933,357.744v1.707c0,5.973-0.853,12.8-3.413,19.627
				s-5.973,13.653-10.24,19.627c-6.119,9.085-14.577,17.283-25.263,24.56c6.888-9.886,10.761-20.923,11.61-33.094
				c0.853-18.773-1.707-34.133-9.387-48.64c-1.707-4.267-6.827-5.973-11.093-3.413c-4.267,1.707-5.973,6.827-3.413,11.093
				c5.973,11.093,8.533,24.747,7.68,39.253c-1.707,28.16-28.16,49.493-77.653,63.147c-3.359,0.901-6.772,1.748-10.21,2.567
				c8.124-6.902,13.828-15.129,17.036-24.753c1.707-4.267-0.853-9.387-5.12-11.093c-5.12-1.707-9.387,0.853-11.093,5.12
				c-7.68,21.333-33.28,34.133-76.8,39.253c-5.264,0.61-10.394,1.107-15.398,1.499c-4.48,0.102-9.013,0.174-13.615,0.208h-0.853
				c-0.853,0-2.56,0-3.413,0h-1.707c-12.704-0.093-24.933-0.448-36.681-1.062c-23.271-3.15-41.81-10.19-55.479-21.125
				c-22.187-17.92-19.627-47.787-5.973-67.413c5.973-7.68,13.653-15.36,24.747-23.04c3.413-2.56,4.267-7.68,1.707-11.947
				c-2.56-3.413-7.68-4.267-11.947-1.707c-11.947,9.387-21.333,17.92-28.16,27.307c-21.182,30.502-17.115,68.566,8.837,89.987
				c-1.815-0.405-3.628-0.813-5.424-1.24c-34.987-9.387-79.36-26.453-84.48-60.587c-1.707-13.653-0.853-25.6,3.413-36.693
				c1.707-4.267-0.853-9.387-5.12-11.093s-9.387,0.853-11.093,5.12c-5.12,13.653-6.827,29.013-4.267,45.227
				c1.493,8.743,4.638,16.847,9.448,24.311c-9.176-6.784-16.616-14.323-22.248-22.604c-4.267-5.973-7.68-11.947-9.387-18.773
				c-2.56-6.827-3.413-13.653-3.413-20.48v-1.707v-1.707c0-14.507,2.56-35.84,15.36-54.613c15.36-23.04,37.547-43.52,99.84-69.973
				c2.56-1.707,5.973-2.56,8.533-4.267c21.333-10.24,39.253-25.6,51.2-43.52c3.198-5.597,10.144-12.693,19.431-15.67
				c0.634,0.192,1.268,0.31,1.903,0.31l18.773,36.693c0.213,0.427,0.48,0.853,0.8,1.267c0.16,0.207,0.333,0.41,0.52,0.608
				c0.56,0.595,1.24,1.145,2.04,1.605c0.533,0.307,1.12,0.573,1.76,0.787c2.56,0.853,5.12,0.853,6.827-0.853l18.773-12.8
				l20.48,27.307c1.707,2.56,4.267,3.413,6.827,3.413h0.853c3.413,0,5.973-2.56,6.827-5.12l18.02-44.231
				c1.706,2.513,4.198,5.025,5.873,7.538c12.8,18.773,29.867,33.28,50.347,43.52c2.56,1.707,5.12,2.56,8.533,4.267
				c62.293,26.453,84.48,46.933,99.84,69.973c11.947,17.92,14.507,40.107,14.507,54.613V357.744z"/>
			<path d="M260.12,260.464c-4.267-2.56-9.387-1.707-11.947,2.56c-3.413,5.12-6.827,9.387-9.387,14.507
				c-5.973,10.24-11.093,18.773-20.48,27.307c-3.413,2.56-6.827,5.973-11.093,8.533c-3.413,2.56-4.267,7.68-1.707,11.947
				c1.707,2.56,4.267,3.413,6.827,3.413c1.707,0,3.413-0.853,5.973-1.707c4.267-3.413,8.533-5.973,11.947-9.387
				c11.093-10.24,17.92-21.333,23.893-31.573c2.56-4.267,5.12-9.387,8.533-13.653C265.24,268.143,264.387,263.023,260.12,260.464z"
				/>
			<path d="M332.653,333.85c-11.093-8.533-22.187-16.213-29.867-24.747c-3.413-3.413-8.533-4.267-11.947-0.853
				c-3.413,3.413-4.267,8.533-0.853,11.947c9.387,10.24,20.48,18.773,32.427,27.307c10.24,7.68,20.48,15.36,29.013,23.893
				c1.707,1.707,3.413,2.56,5.973,2.56s4.267,0,5.973-2.56c3.413-3.413,3.413-8.533,0-11.947
				C354.84,350.064,343.747,341.53,332.653,333.85z"/>
			<path d="M208.067,223.77c-3.413-3.413-8.533-2.56-11.947,0.853c-14.507,17.067-38.4,31.573-63.147,46.08
				c-18.773,11.093-37.547,22.187-53.76,35.84c-4.267,3.413-4.267,8.533-1.707,11.947c1.707,2.56,4.267,3.413,6.827,3.413
				c1.707,0,4.267-0.853,5.973-1.707c14.507-12.8,33.28-23.893,51.2-34.133c24.747-15.36,51.2-29.867,67.413-50.347
				C212.333,232.304,211.48,227.184,208.067,223.77z"/>
			<path d="M421.4,300.57c-11.947-8.533-25.6-16.213-38.4-23.893c-17.92-10.24-36.693-21.333-51.2-34.133
				c-3.413-3.413-8.533-3.413-11.947,0s-3.413,8.533,0,11.947c15.36,14.507,35.84,25.6,54.613,36.693
				c12.8,7.68,26.453,14.507,37.547,23.04c1.707,0.853,3.413,1.707,5.12,1.707c2.56,0,5.12-0.853,5.973-3.413
				C425.667,308.25,424.813,303.13,421.4,300.57z"/>
		</g>
	</g>
</g>
</svg>